<svg xmlns="http://www.w3.org/2000/svg" viewBox="172 84 156 332" preserveAspectRatio="xMidYMid meet"><g transform="translate(0,500) scale(0.1,-0.1)" fill="#1315ff"><path d="M2745 4106 c-58 -18 -77 -29 -445 -249 -184 -111 -355 -220 -380 -243 -59 -55 -106 -134 -124 -209 -19 -80 -33 -885 -16 -959 29 -130 102 -221 240 -301 71 -42 93 -50 135 -50 56 0 91 20 122 70 16 27 19 67 24 460 6 460 8 477 60 576 52 97 102 135 479 362 387 233 400 243 400 325 0 70 -26 101 -132 160 -51 28 -111 55 -133 61 -53 14 -180 13 -230 -3z"/><path d="M2800 2902 c-43 -21 -70 -47 -84 -83 -13 -33 -16 -93 -17 -372 0 -441 -7 -532 -47 -619 -54 -119 -104 -159 -487 -387 -203 -121 -353 -217 -372 -239 -28 -30 -33 -43 -33 -85 0 -75 24 -105 132 -165 51 -28 111 -55 133 -61 68 -18 187 -14 250 10 79 29 751 434 805 485 59 55 106 134 124 209 20 84 33 866 16 952 -28 136 -98 226 -240 307 -83 48 -146 65 -180 48z"/></g></svg>
